<svg width="14" height="14" viewBox="0 0 14 14" fill="none" xmlns="http://www.w3.org/2000/svg">
<path fill-rule="evenodd" clip-rule="evenodd" d="M0 1C0 0.447715 0.447715 0 1 0H4C4.55228 0 5 0.447715 5 1V4C5 4.55228 4.55228 5 4 5H1C0.447715 5 0 4.55228 0 4V1ZM2 3V2H3V3H2Z" fill="#181818"/>
<path fill-rule="evenodd" clip-rule="evenodd" d="M0 10C0 9.44771 0.447715 9 1 9H4C4.55228 9 5 9.44772 5 10V13C5 13.5523 4.55228 14 4 14H1C0.447715 14 0 13.5523 0 13V10ZM2 12V11H3V12H2Z" fill="#181818"/>
<path fill-rule="evenodd" clip-rule="evenodd" d="M10 0C9.44772 0 9 0.447715 9 1V4C9 4.55228 9.44771 5 10 5H13C13.5523 5 14 4.55228 14 4V1C14 0.447715 13.5523 0 13 0H10ZM11 2V3H12V2H11Z" fill="#181818"/>
<path d="M8 1C8 0.447715 7.55228 0 7 0C6.44772 0 6 0.447715 6 1V2C6 2.55228 6.44772 3 7 3C7.55228 3 8 2.55228 8 2V1Z" fill="#181818"/>
<path d="M7 4C7.55228 4 8 4.44772 8 5V6H10C10.5523 6 11 6.44772 11 7C11 7.55228 10.5523 8 10 8H7C6.44772 8 6 7.55228 6 7V5C6 4.44772 6.44772 4 7 4Z" fill="#181818"/>
<path d="M13 6C12.4477 6 12 6.44772 12 7C12 7.55228 12.4477 8 13 8C13.5523 8 14 7.55228 14 7C14 6.44772 13.5523 6 13 6Z" fill="#181818"/>
<path d="M6 10C6 9.44771 6.44772 9 7 9H8C8.55228 9 9 9.44771 9 10C9 10.5523 8.55228 11 8 11V13C8 13.5523 7.55228 14 7 14C6.44772 14 6 13.5523 6 13V10Z" fill="#181818"/>
<path d="M4 8C4.55228 8 5 7.55228 5 7C5 6.44772 4.55228 6 4 6H1C0.447715 6 0 6.44771 0 7C0 7.55228 0.447715 8 1 8H4Z" fill="#181818"/>
<path d="M14 10C14 10.5523 13.5523 11 13 11H11C10.4477 11 10 10.5523 10 10C10 9.44771 10.4477 9 11 9H13C13.5523 9 14 9.44772 14 10Z" fill="#181818"/>
<path d="M13 14C13.5523 14 14 13.5523 14 13C14 12.4477 13.5523 12 13 12H10C9.44771 12 9 12.4477 9 13C9 13.5523 9.44771 14 10 14H13Z" fill="#181818"/>
</svg>
