<svg width="16" height="16" viewBox="0 0 16 16" fill="none" xmlns="http://www.w3.org/2000/svg">
<path fill-rule="evenodd" clip-rule="evenodd" d="M0 8C0 10.2091 1.79086 12 4 12H7V15C7 15.5523 7.44772 16 8 16C8.55229 16 9 15.5523 9 15V12H12C14.2091 12 16 10.2091 16 8C16 5.79086 14.2091 4 12 4C12 1.79086 10.2091 0 8 0C5.79086 0 4 1.79086 4 4C1.79086 4 0 5.79086 0 8ZM9 12H7L7 7.41421L5.70711 8.70711C5.31658 9.09763 4.68342 9.09763 4.29289 8.70711C3.90237 8.31658 3.90237 7.68342 4.29289 7.29289L7.29289 4.29289C7.68342 3.90237 8.31658 3.90237 8.70711 4.29289L11.7071 7.29289C12.0976 7.68342 12.0976 8.31658 11.7071 8.70711C11.3166 9.09763 10.6834 9.09763 10.2929 8.70711L9 7.41421V12Z" fill="#181818"/>
</svg>
